# xmcd CD database file
#
# Track frame offsets:
#	150
#	37455
#	61299
#	84542
#	113057
#	143005
#	165712
#	199428
#	223492
#	244438
#	268161
#	294410
#
# Disc length: 4246 seconds
#
# Revision: 1
# Processed by: cddbd v1.5.2PL0 Copyright (c) Steve Scherf et al.
# Submitted via: CDex 1.81
#
DISCID=c810940c
DTITLE=Miles Davis - Milestones of a Jazz Legend [CD 5)
DYEAR=1956
DGENRE=Jazz
TTITLE0=If I Were A Bell (Loesser)
TTITLE1=You're My Everything (Dixon - Young - Warren)
TTITLE2=I Could Write A Book (Rodgers - Hart)
TTITLE3=Oleo (Rollins)
TTITLE4=It Could Happen To You (Burke - Van Heussen)
TTITLE5=Woodyn' You (Gilllespie)
TTITLE6=Just Squeeze Me (Ellington - Gaines)
TTITLE7=There Is No Greater Love (Jones)
TTITLE8=How Am I To Know (King)
TTITLE9=S'Posin (Denneker)
TTITLE10=The Theme (Davis)
TTITLE11=Stablemates (Golson)
EXTD=YEAR: 1956
EXTT0=
EXTT1=
EXTT2=
EXTT3=
EXTT4=
EXTT5=
EXTT6=
EXTT7=
EXTT8=
EXTT9=
EXTT10=
EXTT11=
PLAYORDER=
